Coordinates
version=1
nRows=16
nColumns=22
inDegrees=yes

Units are S.I. units (second, meters, Newtons, ...)
If the header above contains a line with 'inDegrees', this indicates whether rotational values are in degrees (yes) or radians (no).

endheader
time	pelvis_tilt	pelvis_list	pelvis_rotation	pelvis_tx	pelvis_ty	pelvis_tz	hip_flexion_r	hip_adduction_r	hip_rotation_r	knee_angle_r	ankle_angle_r	subtalar_angle_r	hip_flexion_l	hip_adduction_l	hip_rotation_l	knee_angle_l	ankle_angle_l	subtalar_angle_l	lumbar_extension	lumbar_bending	lumbar_rotation
      1.58000000	     -0.26170329	     -2.59220943	      2.78591154	     -0.96462103	      0.94404545	     -0.76923253	     -2.16068196	      0.09159171	     -9.23771591	     -6.85955618	      9.85311452	      1.28475381	      1.12263423	     -2.42189628	     -8.18277062	    -13.80831988	     13.01197004	     -1.39423646	     -6.62128589	     -1.79884106	     -5.14815224
      1.59000000	     -0.23234112	     -2.57388723	      2.82044192	     -0.96424024	      0.94404947	     -0.76996603	     -2.23566981	      0.03205471	     -9.23423063	     -6.84261073	      9.87943352	      1.32729328	      1.00738258	     -2.34666727	     -8.11945383	    -13.69999358	     12.99831889	     -1.45623986	     -6.66728178	     -1.84264329	     -5.17974604
      1.60000000	     -0.24662868	     -2.58485555	      2.84754940	     -0.96389891	      0.94397736	     -0.77068268	     -2.24356541	      0.00181469	     -9.20678163	     -6.85232559	      9.88251158	      1.33313890	      0.98280122	     -2.31292151	     -8.11820398	    -13.66781096	     13.02819374	     -1.45975014	     -6.66959696	     -1.85315281	     -5.21822307
      1.61000000	     -0.24595151	     -2.58783821	      2.87570497	     -0.96353602	      0.94392998	     -0.77142441	     -2.25916051	     -0.03950889	     -9.18102736	     -6.88203723	      9.89864801	      1.34551083	      0.94130876	     -2.26704587	     -8.08852300	    -13.63848202	     13.05850277	     -1.47120343	     -6.68996862	     -1.87100110	     -5.25761835
      1.62000000	     -0.21526224	     -2.58023421	      2.91773902	     -0.96314255	      0.94392837	     -0.77221367	     -2.31122763	     -0.09254284	     -9.20385013	     -6.91046963	      9.95025714	      1.38271483	      0.85913339	     -2.20601414	     -8.03459379	    -13.59318214	     13.07722111	     -1.52184432	     -6.75145114	     -1.89831899	     -5.28928651
      1.63000000	     -0.21121301	     -2.59831728	      2.94472113	     -0.96277901	      0.94388883	     -0.77297627	     -2.31617614	     -0.12000248	     -9.17296238	     -6.96384890	      9.94589586	      1.38861266	      0.83623197	     -2.18000755	     -8.02776935	    -13.60279765	     13.08948308	     -1.53131712	     -6.78675354	     -1.89485702	     -5.32913685
      1.64000000	     -0.17275973	     -2.59433748	      2.98598366	     -0.96235498	      0.94388882	     -0.77377430	     -2.36060374	     -0.17207611	     -9.19814678	     -7.02656020	      9.99926713	      1.42466628	      0.76981504	     -2.12842337	     -7.99103668	    -13.60907798	     13.13743674	     -1.58453014	     -6.85937492	     -1.91658160	     -5.37078576
      1.65000000	     -0.16191201	     -2.61094266	      3.01396343	     -0.96197037	      0.94385946	     -0.77454551	     -2.36124701	     -0.20280121	     -9.16181193	     -7.10376841	      9.99532926	      1.43112044	      0.74745403	     -2.10173283	     -7.97813918	    -13.63433937	     13.14774881	     -1.59632634	     -6.90694974	     -1.91487050	     -5.40832224
      1.66000000	     -0.12329588	     -2.60332883	      3.04774467	     -0.96153492	      0.94385387	     -0.77534195	     -2.38238123	     -0.26367497	     -9.18922205	     -7.21100980	     10.06194563	      1.46567494	      0.69171620	     -2.04857015	     -7.95921662	    -13.66331353	     13.19648558	     -1.64695279	     -6.98500197	     -1.94144743	     -5.43890723
      1.67000000	     -0.10600662	     -2.61616582	      3.07520246	     -0.96113150	      0.94382705	     -0.77612079	     -2.37518750	     -0.30107420	     -9.14940690	     -7.31795666	     10.06280777	      1.47346949	      0.66825014	     -2.01828938	     -7.93819415	    -13.70267295	     13.20977748	     -1.65953519	     -7.04397215	     -1.94434028	     -5.47325422
      1.68000000	     -0.06843225	     -2.60042440	      3.10175588	     -0.96069385	      0.94380713	     -0.77692704	     -2.36654744	     -0.37776601	     -9.19003848	     -7.47942134	     10.15836759	      1.51390850	      0.61942422	     -1.95533355	     -7.91886451	    -13.74478688	     13.26313584	     -1.71185700	     -7.12528001	     -1.98108479	     -5.49198932
      1.69000000	     -0.04587092	     -2.61066678	      3.12780739	     -0.96030489	      0.94377850	     -0.77772695	     -2.34851208	     -0.42165799	     -9.14603817	     -7.61505020	     10.16321885	      1.52357473	      0.60098980	     -1.92087593	     -7.88410133	    -13.80216784	     13.27708348	     -1.72581009	     -7.19799346	     -1.98438345	     -5.52047184
      1.70000000	     -0.01591658	     -2.59259406	      3.15328360	     -0.95988513	      0.94373432	     -0.77855414	     -2.31112791	     -0.50641301	     -9.19879846	     -7.81333606	     10.28046383	      1.57105414	      0.57239036	     -1.85347054	     -7.85439614	    -13.86412842	     13.33530667	     -1.78390573	     -7.27796469	     -2.02240120	     -5.53095116
      1.71000000	      0.00831446	     -2.60341997	      3.17711294	     -0.95949726	      0.94370199	     -0.77936054	     -2.28938772	     -0.55106663	     -9.15190612	     -7.95876119	     10.28549175	      1.58167359	      0.56302522	     -1.81884275	     -7.80482426	    -13.94313236	     13.34674048	     -1.79954280	     -7.35917815	     -2.02528780	     -5.54841527
      1.72000000	      0.03332899	     -2.58967299	      3.20395402	     -0.95906736	      0.94364502	     -0.78018671	     -2.24353223	     -0.63185494	     -9.20849962	     -8.16467861	     10.40632260	      1.63346276	      0.55239734	     -1.75705201	     -7.76656829	    -14.03127307	     13.40831875	     -1.86576226	     -7.43842773	     -2.05984565	     -5.55592347
      1.73000000	      0.05793441	     -2.60187172	      3.22537065	     -0.95863679	      0.94361347	     -0.78097291	     -2.22804206	     -0.67304784	     -9.16122035	     -8.30372891	     10.41011134	      1.64473013	      0.54733754	     -1.72552266	     -7.70822502	    -14.12749393	     13.41698660	     -1.88357758	     -7.52025260	     -2.06514618	     -5.56085337
